<mxfile host="app.diagrams.net" modified="2023-07-25T02:49:23.428Z" agent="Mozilla/5.0 (Macintosh; Intel Mac OS X 10.15; rv:109.0) Gecko/20100101 Firefox/115.0" etag="h5UeAfqUcoixUR3bBgpz" version="21.6.5" type="gitlab">
  <diagram name="Page-1" id="i5MCHsnK_7qoWDh0UkzE">
    <mxGraphModel dx="1026" dy="641" grid="1" gridSize="10" guides="1" tooltips="1" connect="1" arrows="1" fold="1" page="1" pageScale="1" pageWidth="850" pageHeight="1100" math="0" shadow="0">
      <root>
        <mxCell id="0" />
        <mxCell id="1" parent="0" />
        <mxCell id="-krhu6dnZnewL_vkGu-U-1" value="DB instance" style="sketch=0;outlineConnect=0;fontColor=#232F3E;gradientColor=none;strokeColor=#232F3E;fillColor=#ffffff;dashed=0;verticalLabelPosition=bottom;verticalAlign=top;align=center;html=1;fontSize=12;fontStyle=0;aspect=fixed;shape=mxgraph.aws4.resourceIcon;resIcon=mxgraph.aws4.db_instance;" parent="1" vertex="1">
          <mxGeometry x="610" y="230" width="60" height="60" as="geometry" />
        </mxCell>
        <mxCell id="-krhu6dnZnewL_vkGu-U-2" value="VPN Gateway" style="sketch=0;outlineConnect=0;fontColor=#232F3E;gradientColor=none;strokeColor=#232F3E;fillColor=#ffffff;dashed=0;verticalLabelPosition=bottom;verticalAlign=top;align=center;html=1;fontSize=12;fontStyle=0;aspect=fixed;shape=mxgraph.aws4.resourceIcon;resIcon=mxgraph.aws4.vpn_gateway;" parent="1" vertex="1">
          <mxGeometry x="70" y="150" width="60" height="60" as="geometry" />
        </mxCell>
        <mxCell id="-krhu6dnZnewL_vkGu-U-3" value="AWS STS" style="sketch=0;outlineConnect=0;fontColor=#232F3E;gradientColor=none;strokeColor=#232F3E;fillColor=#ffffff;dashed=0;verticalLabelPosition=bottom;verticalAlign=top;align=center;html=1;fontSize=12;fontStyle=0;aspect=fixed;shape=mxgraph.aws4.resourceIcon;resIcon=mxgraph.aws4.sts;" parent="1" vertex="1">
          <mxGeometry x="140" y="60" width="60" height="60" as="geometry" />
        </mxCell>
        <mxCell id="-krhu6dnZnewL_vkGu-U-4" value="Encrypted&#xa;data" style="sketch=0;outlineConnect=0;fontColor=#232F3E;gradientColor=none;strokeColor=#232F3E;fillColor=#ffffff;dashed=0;verticalLabelPosition=bottom;verticalAlign=top;align=center;html=1;fontSize=12;fontStyle=0;aspect=fixed;shape=mxgraph.aws4.resourceIcon;resIcon=mxgraph.aws4.encrypted_data;" parent="1" vertex="1">
          <mxGeometry x="180" y="150" width="60" height="60" as="geometry" />
        </mxCell>
        <mxCell id="-krhu6dnZnewL_vkGu-U-10" value="" style="sketch=0;outlineConnect=0;fontColor=#232F3E;gradientColor=none;fillColor=#000000;strokeColor=none;dashed=0;verticalLabelPosition=bottom;verticalAlign=top;align=center;html=1;fontSize=12;fontStyle=0;aspect=fixed;pointerEvents=1;shape=mxgraph.aws4.sagemaker_geospatial_ml;" parent="1" vertex="1">
          <mxGeometry x="171" y="380" width="59" height="59" as="geometry" />
        </mxCell>
        <mxCell id="-krhu6dnZnewL_vkGu-U-11" value="" style="sketch=0;points=[[0,0,0],[0.25,0,0],[0.5,0,0],[0.75,0,0],[1,0,0],[0,1,0],[0.25,1,0],[0.5,1,0],[0.75,1,0],[1,1,0],[0,0.25,0],[0,0.5,0],[0,0.75,0],[1,0.25,0],[1,0.5,0],[1,0.75,0]];outlineConnect=0;fontColor=#232F3E;gradientColor=#4D72F3;gradientDirection=north;fillColor=none;strokeColor=#000000;dashed=0;verticalLabelPosition=bottom;verticalAlign=top;align=center;html=1;fontSize=12;fontStyle=0;aspect=fixed;shape=mxgraph.aws4.resourceIcon;resIcon=mxgraph.aws4.rds_on_vmware;" parent="1" vertex="1">
          <mxGeometry x="720" y="258" width="78" height="78" as="geometry" />
        </mxCell>
        <mxCell id="-krhu6dnZnewL_vkGu-U-12" value="" style="sketch=0;points=[[0,0,0],[0.25,0,0],[0.5,0,0],[0.75,0,0],[1,0,0],[0,1,0],[0.25,1,0],[0.5,1,0],[0.75,1,0],[1,1,0],[0,0.25,0],[0,0.5,0],[0,0.75,0],[1,0.25,0],[1,0.5,0],[1,0.75,0]];outlineConnect=0;fontColor=#232F3E;gradientColor=#4D72F3;gradientDirection=north;fillColor=none;strokeColor=#000000;dashed=0;verticalLabelPosition=bottom;verticalAlign=top;align=center;html=1;fontSize=12;fontStyle=0;aspect=fixed;shape=mxgraph.aws4.resourceIcon;resIcon=mxgraph.aws4.elasticache;" parent="1" vertex="1">
          <mxGeometry x="690" y="160" width="78" height="78" as="geometry" />
        </mxCell>
        <mxCell id="-krhu6dnZnewL_vkGu-U-13" value="" style="sketch=0;outlineConnect=0;fontColor=#232F3E;gradientColor=none;fillColor=#000000;strokeColor=none;dashed=0;verticalLabelPosition=bottom;verticalAlign=top;align=center;html=1;fontSize=12;fontStyle=0;aspect=fixed;shape=mxgraph.aws4.amplify_aws_amplify_studio;" parent="1" vertex="1">
          <mxGeometry x="404" y="540" width="48" height="44" as="geometry" />
        </mxCell>
        <mxCell id="-krhu6dnZnewL_vkGu-U-14" value="" style="sketch=0;outlineConnect=0;fontColor=#232F3E;gradientColor=none;fillColor=#000000;strokeColor=none;dashed=0;verticalLabelPosition=bottom;verticalAlign=top;align=center;html=1;fontSize=12;fontStyle=0;aspect=fixed;shape=mxgraph.aws4.location_service_map;" parent="1" vertex="1">
          <mxGeometry x="476" y="465" width="48" height="48" as="geometry" />
        </mxCell>
        <mxCell id="-krhu6dnZnewL_vkGu-U-15" value="" style="sketch=0;points=[[0,0,0],[0.25,0,0],[0.5,0,0],[0.75,0,0],[1,0,0],[0,1,0],[0.25,1,0],[0.5,1,0],[0.75,1,0],[1,1,0],[0,0.25,0],[0,0.5,0],[0,0.75,0],[1,0.25,0],[1,0.5,0],[1,0.75,0]];outlineConnect=0;fontColor=#232F3E;gradientColor=#F54749;gradientDirection=north;fillColor=none;strokeColor=#000000;dashed=0;verticalLabelPosition=bottom;verticalAlign=top;align=center;html=1;fontSize=12;fontStyle=0;aspect=fixed;shape=mxgraph.aws4.resourceIcon;resIcon=mxgraph.aws4.mobile;" parent="1" vertex="1">
          <mxGeometry x="326" y="450" width="78" height="78" as="geometry" />
        </mxCell>
        <mxCell id="-krhu6dnZnewL_vkGu-U-16" value="Bank Data Admin" style="sketch=0;outlineConnect=0;fontColor=#232F3E;gradientColor=none;strokeColor=#232F3E;fillColor=#ffffff;dashed=0;verticalLabelPosition=bottom;verticalAlign=top;align=center;html=1;fontSize=12;fontStyle=0;aspect=fixed;shape=mxgraph.aws4.resourceIcon;resIcon=mxgraph.aws4.x1_instance;" parent="1" vertex="1">
          <mxGeometry x="395" y="230" width="60" height="60" as="geometry" />
        </mxCell>
        <mxCell id="-krhu6dnZnewL_vkGu-U-17" value="&lt;font color=&quot;#ffffff&quot;&gt;Kafka/RabbitMQ&lt;/font&gt;" style="sketch=0;outlineConnect=0;fontColor=#232F3E;gradientColor=none;strokeColor=#000000;fillColor=none;dashed=0;verticalLabelPosition=middle;verticalAlign=bottom;align=center;html=1;whiteSpace=wrap;fontSize=10;fontStyle=1;spacing=3;shape=mxgraph.aws4.productIcon;prIcon=mxgraph.aws4.mq;" parent="1" vertex="1">
          <mxGeometry x="398" y="20" width="80" height="100" as="geometry" />
        </mxCell>
        <mxCell id="XCqxtQ-PgcjRmWPjR3io-2" value="&lt;font style=&quot;font-size: 16px;&quot;&gt;Bank Data Lake&lt;/font&gt;" style="text;html=1;strokeColor=none;fillColor=none;align=center;verticalAlign=middle;whiteSpace=wrap;rounded=0;" vertex="1" parent="1">
          <mxGeometry x="638.75" y="120" width="132.5" height="30" as="geometry" />
        </mxCell>
        <mxCell id="XCqxtQ-PgcjRmWPjR3io-3" value="" style="ellipse;whiteSpace=wrap;html=1;fillColor=none;" vertex="1" parent="1">
          <mxGeometry x="580" y="70" width="260" height="320" as="geometry" />
        </mxCell>
        <mxCell id="XCqxtQ-PgcjRmWPjR3io-4" value="" style="ellipse;whiteSpace=wrap;html=1;fillColor=none;" vertex="1" parent="1">
          <mxGeometry x="40.5" y="30" width="260" height="290" as="geometry" />
        </mxCell>
        <mxCell id="XCqxtQ-PgcjRmWPjR3io-5" value="Account Security" style="text;html=1;strokeColor=none;fillColor=none;align=center;verticalAlign=middle;whiteSpace=wrap;rounded=0;fontSize=16;" vertex="1" parent="1">
          <mxGeometry x="90" y="258" width="140" height="30" as="geometry" />
        </mxCell>
      </root>
    </mxGraphModel>
  </diagram>
</mxfile>
